<?xml version="1.0" standalone="no"?>
<!DOCTYPE svg PUBLIC "-//W3C//DTD SVG 20010904//EN"
 "http://www.w3.org/TR/2001/REC-SVG-20010904/DTD/svg10.dtd">
<svg version="1.0" xmlns="http://www.w3.org/2000/svg"
 width="1200.000000pt" height="1200.000000pt" viewBox="0 0 1200.000000 1200.000000"
 preserveAspectRatio="xMidYMid meet">
<metadata>
Created by potrace 1.11, written by Peter Selinger 2001-2013
</metadata>
<g transform="translate(0.000000,1200.000000) scale(0.100000,-0.100000)"
fill="#000000" stroke="none">
<path d="M1384 11728 c-3 -5 -10 -6 -15 -3 -5 4 -9 0 -9 -7 0 -9 -3 -9 -10 2
-5 8 -10 10 -10 4 0 -7 -7 -15 -16 -18 -15 -6 -15 -4 -3 11 10 14 8 13 -10 -2
-13 -11 -24 -18 -25 -15 0 2 -15 -4 -33 -15 -18 -10 -29 -23 -26 -29 4 -6 -1
-7 -13 -2 -10 4 -15 4 -12 0 4 -3 -7 -16 -25 -28 -21 -14 -32 -30 -31 -44 1
-12 -3 -19 -8 -16 -5 3 -8 -1 -6 -9 2 -9 -6 -23 -17 -32 -11 -9 -13 -13 -5 -9
9 5 8 -1 -5 -15 -12 -14 -19 -34 -17 -49 2 -21 1 -24 -7 -12 -6 8 -11 10 -11
5 0 -6 5 -16 11 -22 8 -8 7 -13 -2 -18 -8 -6 -10 -4 -4 5 5 9 4 11 -4 6 -9 -6
-9 -11 1 -24 11 -13 11 -14 -1 -8 -10 7 -12 4 -7 -12 4 -11 2 -23 -4 -27 -8
-5 -8 -11 1 -21 9 -11 9 -14 -1 -14 -10 0 -10 -3 0 -15 10 -13 11 -18 1 -28
-10 -9 -11 -8 -5 8 4 11 3 16 -1 12 -10 -9 -14 -148 -5 -142 4 2 6 27 5 55 -1
27 1 50 5 50 9 0 6 -137 -3 -147 -5 -4 -5 1 -1 12 4 12 3 17 -2 12 -9 -9 -13
-388 -4 -382 4 2 6 36 5 74 -1 39 2 71 5 71 9 0 6 -177 -3 -187 -5 -4 -5 1 -1
12 4 12 3 17 -2 12 -10 -9 -13 -388 -3 -381 4 2 5 17 4 34 -1 16 1 30 5 30 9
0 7 -97 -3 -107 -5 -4 -5 1 -1 12 4 11 3 16 -1 12 -10 -9 -14 -148 -5 -142 4
2 6 27 5 55 -1 27 1 50 5 50 9 0 6 -137 -3 -147 -5 -4 -5 1 -1 12 4 12 3 17
-2 12 -9 -9 -13 -388 -4 -382 4 2 6 36 5 74 -1 39 2 71 5 71 9 0 6 -177 -3
-187 -5 -4 -5 1 -1 12 4 12 3 17 -2 12 -9 -9 -13 -468 -4 -462 4 2 6 36 5 74
-1 39 2 71 5 71 9 0 6 -177 -3 -187 -5 -4 -5 1 -1 12 4 12 3 17 -2 12 -9 -9
-13 -308 -4 -302 3 2 5 62 5 134 0 72 2 131 5 131 9 0 6 -298 -3 -307 -5 -4
-5 1 -1 12 4 12 3 17 -2 12 -9 -9 -13 -308 -4 -302 3 2 5 62 5 134 0 72 2 131
5 131 9 0 6 -298 -3 -307 -5 -4 -5 1 -1 12 4 12 3 17 -2 12 -9 -9 -13 -308 -4
-302 3 2 5 62 5 134 0 72 2 131 5 131 9 0 6 -298 -3 -307 -5 -4 -5 1 -1 12 4
12 3 17 -2 12 -9 -9 -13 -468 -4 -462 4 2 6 36 5 74 -1 39 2 71 5 71 9 0 6
-177 -3 -187 -5 -4 -5 1 -1 12 4 12 3 17 -2 12 -10 -9 -13 -388 -3 -381 4 2 5
17 4 34 -1 16 1 30 5 30 9 0 7 -97 -3 -107 -5 -4 -5 1 -1 12 4 11 3 16 -1 12
-10 -9 -14 -148 -5 -142 4 2 6 27 5 55 -1 27 1 50 5 50 9 0 6 -137 -3 -147 -5
-4 -5 1 -1 12 4 12 3 17 -2 12 -9 -9 -13 -388 -4 -382 4 2 6 36 5 74 -1 39 2
71 5 71 9 0 6 -177 -3 -187 -5 -4 -5 1 -1 12 4 12 3 17 -2 12 -10 -9 -13 -388
-3 -381 4 2 5 17 4 34 -1 16 1 30 5 30 9 0 7 -97 -3 -107 -5 -4 -5 1 -1 12 4
11 3 16 -1 12 -10 -9 -14 -148 -5 -142 4 2 6 27 5 55 -1 27 1 50 5 50 9 0 6
-137 -3 -147 -5 -4 -5 1 -1 12 4 12 3 17 -2 12 -9 -9 -13 -388 -4 -382 4 2 6
36 5 74 -1 39 2 71 5 71 9 0 6 -177 -3 -187 -5 -4 -5 1 -1 12 4 12 3 17 -2 12
-9 -9 -13 -468 -4 -462 4 2 6 36 5 74 -1 39 2 71 5 71 9 0 6 -177 -3 -187 -5
-4 -5 1 -1 12 4 12 3 17 -2 12 -9 -9 -13 -308 -4 -302 3 2 5 62 5 134 0 72 2
131 5 131 9 0 6 -298 -3 -307 -5 -4 -5 1 -1 12 4 12 3 17 -2 12 -9 -9 -13
-308 -4 -302 3 2 5 62 5 134 0 72 2 131 5 131 9 0 6 -298 -3 -307 -5 -4 -5 1
-1 12 4 12 3 17 -2 12 -9 -9 -13 -308 -4 -302 3 2 5 62 5 134 0 72 2 131 5
131 9 0 6 -298 -3 -307 -5 -4 -5 1 -1 12 4 12 3 17 -2 12 -9 -9 -13 -468 -4
-462 4 2 6 36 5 74 -1 39 2 71 5 71 9 0 6 -177 -3 -187 -5 -4 -5 1 -1 12 4 12
3 17 -2 12 -10 -9 -13 -388 -3 -381 4 2 5 17 4 34 -1 16 1 30 5 30 9 0 7 -97
-3 -107 -5 -4 -5 1 -1 12 4 11 3 16 -1 12 -10 -9 -14 -148 -5 -142 4 2 6 27 5
55 -1 27 1 50 5 50 9 0 6 -137 -3 -147 -5 -4 -5 1 -1 12 4 12 3 17 -2 12 -9
-9 -13 -388 -4 -382 4 2 6 36 5 74 -1 39 2 71 5 71 9 0 6 -177 -3 -187 -5 -4
-5 1 -1 12 4 12 3 17 -2 12 -10 -9 -13 -388 -3 -381 4 2 5 17 4 34 -1 16 1 30
5 30 9 0 7 -97 -3 -107 -5 -4 -5 1 -1 12 4 11 3 16 -1 12 -10 -9 -14 -148 -5
-142 4 2 6 27 5 55 -1 27 1 50 5 50 9 0 6 -137 -3 -147 -5 -4 -5 1 -1 12 4 12
3 17 -2 12 -9 -9 -13 -388 -4 -382 4 2 6 36 5 74 -1 39 2 71 5 71 9 0 6 -177
-3 -187 -5 -4 -5 1 -1 12 4 12 3 17 -2 12 -9 -9 -13 -468 -4 -462 4 2 6 36 5
74 -1 39 2 71 5 71 9 0 6 -177 -3 -187 -5 -4 -5 1 -1 12 4 12 3 17 -2 12 -9
-9 -13 -308 -4 -302 3 2 5 62 5 134 0 72 2 131 5 131 9 0 6 -298 -3 -307 -5
-4 -5 1 -1 12 4 12 3 17 -2 12 -9 -9 -13 -308 -4 -302 3 2 5 62 5 134 0 72 2
131 5 131 9 0 6 -298 -3 -307 -5 -4 -5 1 -1 12 4 11 3 17 -2 12 -9 -9 -13
-226 -4 -232 3 -2 5 41 5 96 0 54 2 99 5 99 8 0 6 -193 -3 -206 -3 -6 -3 -14
1 -18 3 -4 7 -26 8 -49 2 -58 3 -59 16 -51 8 5 7 0 -2 -11 -8 -10 -10 -16 -4
-12 12 7 29 -21 19 -31 -3 -3 -5 1 -5 8 0 7 -3 11 -6 8 -3 -4 2 -20 10 -37 9
-17 15 -33 14 -35 -2 -2 5 -13 15 -23 9 -11 14 -23 10 -27 -4 -4 3 -9 15 -12
12 -4 24 -14 27 -25 4 -11 12 -16 21 -12 11 4 15 0 12 -12 -2 -10 4 -20 12
-22 13 -4 13 -3 0 6 -8 6 -10 11 -4 11 6 0 19 -9 29 -20 18 -20 18 -21 -1 -14
-10 4 -16 4 -12 0 6 -7 30 -14 56 -15 7 -1 10 -6 7 -11 -4 -6 -3 -10 2 -9 4 1
10 0 13 -1 18 -7 39 -7 35 0 -7 11 22 7 32 -5 4 -4 1 -5 -7 0 -13 7 -13 6 -1
-6 10 -11 15 -11 18 -1 3 6 9 12 14 12 6 0 8 -4 5 -8 -2 -4 6 -8 19 -8 13 0
22 3 19 7 -5 9 17 6 34 -4 7 -5 12 -3 12 4 0 8 5 7 17 -2 11 -10 14 -10 9 -1
-4 6 -4 12 1 13 4 0 16 2 26 4 9 2 15 -1 11 -6 -3 -5 0 -9 5 -9 6 0 11 7 11
16 0 13 3 14 14 5 10 -8 16 -9 21 -1 3 6 11 8 16 5 5 -3 6 1 3 9 -4 11 0 14
17 11 12 -2 29 0 38 6 14 9 14 10 -2 5 -11 -4 -16 -2 -11 5 3 6 15 9 25 6 11
-3 19 0 19 8 0 7 7 16 16 19 9 4 13 2 8 -5 -4 -8 0 -7 15 0 11 7 21 14 21 17
0 3 -5 2 -12 -2 -6 -4 -8 -3 -5 4 4 5 15 9 25 7 9 -1 29 6 43 16 14 10 29 15
33 12 4 -4 9 2 12 14 4 12 12 19 19 17 7 -3 15 2 18 10 3 8 16 20 28 26 14 8
19 8 15 1 -5 -7 -1 -9 8 -5 9 3 13 11 9 17 -4 6 0 8 10 4 11 -4 17 -1 17 9 0
11 6 13 20 9 12 -4 19 -2 18 3 -2 6 1 10 6 10 5 0 12 4 15 9 3 4 15 15 26 23
19 14 19 14 5 -6 -8 -11 -4 -8 10 7 29 30 66 52 94 54 11 1 22 7 24 14 2 6 8
9 13 5 5 -3 9 2 9 11 0 9 5 13 10 10 6 -3 10 -1 10 4 0 6 5 11 11 11 5 0 7 -6
4 -12 -4 -7 3 -1 15 14 11 15 27 25 34 22 8 -3 17 0 21 5 3 6 11 9 16 5 6 -3
13 3 16 14 3 14 11 18 26 16 12 -2 16 -1 9 2 -10 5 -9 9 5 19 14 10 21 11 32
2 11 -9 13 -9 8 -1 -4 7 1 18 10 25 14 12 15 12 9 1 -7 -12 -4 -12 15 -1 33
17 49 35 41 44 -4 5 -2 5 5 1 12 -6 73 18 73 30 0 3 -5 2 -12 -2 -7 -4 -8 -3
-4 5 6 9 12 9 24 -1 10 -7 14 -8 10 -4 -4 5 -3 15 3 23 14 16 43 18 33 1 -4
-7 -3 -8 4 -4 7 4 12 15 12 24 0 15 2 15 10 2 8 -13 10 -13 10 2 0 9 5 20 12
24 7 4 8 3 4 -4 -5 -8 -2 -10 8 -6 9 3 13 11 9 17 -4 6 0 8 10 4 12 -4 17 -1
17 11 0 15 2 15 10 2 8 -13 10 -13 10 2 0 11 5 15 14 12 8 -3 17 0 22 7 5 8 3
10 -6 4 -9 -5 -11 -4 -6 4 6 9 11 9 22 0 12 -10 13 -9 8 4 -4 12 -1 15 14 12
12 -2 27 4 34 13 12 16 11 16 -7 2 -19 -14 -19 -14 -6 3 11 14 17 15 28 5 11
-9 13 -9 11 2 -2 7 12 22 31 33 24 15 32 17 27 6 -4 -7 -1 -6 7 3 8 10 17 15
20 11 4 -3 7 1 7 9 0 11 8 15 25 13 22 -2 23 0 13 13 -8 10 -8 13 -2 9 7 -4
17 0 24 8 9 11 16 12 25 5 10 -8 15 -8 21 1 5 8 3 10 -7 4 -10 -5 -9 -3 2 9 9
9 25 18 37 19 12 1 22 7 22 14 0 6 5 15 12 19 8 5 9 2 4 -11 -5 -15 -4 -16 9
-5 8 7 12 16 9 21 -3 5 3 6 12 2 11 -4 15 -3 10 5 -4 7 1 10 14 7 13 -3 18 0
14 7 -5 8 -1 9 9 5 11 -4 22 1 29 13 7 11 16 20 21 20 4 0 5 -5 1 -12 -4 -7
-3 -8 4 -4 7 4 12 14 12 23 0 9 6 13 14 10 8 -3 20 1 26 8 7 8 16 12 21 9 5
-3 6 2 3 10 -4 12 1 15 22 13 17 -1 29 4 31 13 4 13 3 13 -7 0 -10 -13 -11
-13 -7 0 2 8 12 14 22 12 12 -2 15 1 9 10 -6 10 -4 10 9 -1 9 -7 18 -11 18 -7
1 3 2 9 3 14 4 22 18 33 31 22 10 -8 15 -8 21 1 4 8 3 9 -4 5 -25 -15 -10 3
15 20 20 13 25 13 18 3 -5 -8 1 -3 14 11 13 14 20 19 16 12 -6 -11 -3 -12 14
-3 11 7 21 16 21 21 0 5 10 14 23 20 21 11 21 10 3 -4 -11 -9 -17 -18 -14 -21
3 -3 17 7 31 21 15 15 27 24 27 20 0 -3 9 3 21 15 11 11 27 18 35 15 9 -3 12
-2 9 5 -4 6 -1 9 7 7 15 -3 71 36 62 44 -2 3 6 4 20 3 18 -2 23 1 19 11 -4 10
0 12 13 7 11 -4 15 -3 11 4 -4 6 1 10 11 9 9 0 16 5 14 12 -1 8 2 11 8 7 5 -3
10 -2 10 4 0 5 9 8 20 6 12 -2 25 4 34 17 8 11 19 17 24 14 5 -3 16 2 23 12
13 16 12 16 -6 3 -19 -14 -19 -14 -2 5 14 15 19 16 26 5 7 -11 10 -9 15 7 4
11 14 23 23 26 12 5 13 3 7 -7 -5 -7 -1 -4 10 7 10 12 23 21 30 22 6 0 17 2
23 2 7 1 27 17 45 35 17 17 28 25 23 17 -4 -8 2 -5 14 7 26 27 39 31 20 6 -13
-17 -13 -17 7 0 11 9 24 14 28 10 4 -4 4 0 1 9 -5 13 -2 15 17 11 19 -4 20 -3
8 7 -12 10 -11 11 8 7 16 -4 22 -1 22 11 0 15 2 15 10 2 8 -13 10 -13 10 2 0
9 5 20 12 24 7 5 8 3 3 -7 -7 -11 -6 -12 7 -2 8 7 18 10 22 6 4 -4 4 0 0 10
-4 12 -2 16 8 12 7 -3 22 2 33 11 11 8 14 12 6 8 -10 -5 -12 -3 -7 5 6 9 11 9
21 1 10 -8 18 -5 33 15 11 14 22 20 24 14 2 -7 9 -4 18 7 12 14 12 16 1 9 -10
-5 -12 -4 -7 4 4 6 18 9 31 7 19 -3 22 -1 18 11 -4 11 -2 14 5 9 7 -4 12 -3
12 2 0 6 7 13 16 16 12 5 14 3 8 -7 -5 -7 1 -1 13 13 16 17 23 20 23 10 1 -10
5 -7 13 8 10 18 15 20 26 10 11 -10 12 -10 7 0 -4 6 -2 12 4 12 6 0 8 5 4 13
-5 7 0 6 11 -3 15 -12 17 -12 10 -1 -6 11 -4 13 8 8 11 -4 14 -2 11 8 -4 10 0
13 14 10 12 -2 27 4 34 13 12 16 11 16 -7 2 -18 -14 -19 -14 -7 2 7 9 22 15
34 13 14 -3 18 0 14 11 -3 8 -2 12 3 9 5 -3 13 0 16 6 4 5 14 8 22 5 9 -4 11
-2 7 6 -5 8 -2 9 9 5 10 -4 16 -2 14 5 -1 7 5 13 13 14 33 3 38 5 58 23 12 10
18 21 15 25 -4 4 0 4 9 1 9 -4 19 -1 23 4 3 6 11 8 17 5 8 -5 9 -1 5 10 -4 10
-3 15 3 11 6 -3 10 -2 10 3 0 6 7 13 16 16 14 5 15 4 5 -8 -11 -13 -9 -13 13
-3 14 7 26 16 26 20 0 5 -5 5 -12 1 -7 -4 -8 -3 -4 5 4 6 11 9 16 6 4 -3 11 1
13 7 4 10 6 10 6 1 1 -8 9 -5 22 8 11 11 27 18 34 15 8 -3 12 0 9 7 -3 8 5 13
17 14 12 1 27 7 33 14 8 9 7 10 -3 4 -9 -5 -12 -4 -7 3 4 6 13 9 20 6 8 -3 17
0 21 5 3 6 10 9 15 6 4 -3 22 9 40 25 34 32 45 37 35 18 -4 -7 -1 -6 7 3 7 9
23 19 36 23 12 4 20 11 17 16 -3 4 2 11 11 14 8 3 12 2 9 -4 -3 -6 1 -7 9 -4
9 3 13 11 9 17 -4 6 0 8 10 4 9 -3 19 -1 23 5 5 7 2 8 -6 3 -9 -5 -11 -4 -6 4
4 6 13 11 19 10 20 -2 57 13 57 23 0 5 4 6 10 3 6 -4 7 1 3 12 -6 16 -5 16 10
4 15 -12 17 -12 11 4 -5 13 -4 16 5 11 6 -4 19 1 29 11 9 11 15 14 12 8 -3 -6
2 -4 10 5 9 9 29 25 45 35 l30 18 -30 -27 -30 -26 32 17 c18 10 37 27 43 38 9
17 10 18 5 1 -5 -16 -3 -17 10 -6 8 7 12 16 9 21 -3 5 2 6 11 3 9 -4 24 1 34
10 10 9 21 13 26 9 4 -5 5 0 2 10 -4 11 -3 16 3 12 6 -3 10 -1 10 5 0 7 8 9
20 5 15 -5 18 -3 14 9 -5 12 -2 15 12 9 12 -4 15 -3 10 5 -4 8 -2 10 7 6 9 -3
28 8 46 25 18 17 35 31 39 31 4 0 -1 -7 -10 -14 -10 -7 -18 -17 -18 -21 0 -5
13 3 28 18 16 15 31 24 35 20 4 -3 7 -2 7 3 0 6 15 21 32 34 27 19 30 20 19 4
-8 -10 -2 -7 13 8 15 16 33 28 41 28 8 0 15 6 15 13 0 8 4 7 10 -3 7 -11 10
-11 10 -2 0 7 5 10 10 7 6 -4 9 -1 8 6 -2 6 3 14 11 17 9 3 11 0 6 -9 -4 -8 3
-2 16 12 13 14 31 30 39 35 9 5 7 1 -3 -8 -11 -10 -15 -18 -9 -18 6 0 19 11
30 25 14 17 22 21 25 13 4 -10 6 -10 6 0 1 7 5 11 10 8 5 -3 28 12 51 33 26
24 49 37 58 33 10 -3 13 -1 8 6 -5 8 -2 10 8 6 10 -4 16 -1 16 9 0 10 7 14 23
11 12 -2 16 -1 9 2 -10 5 -9 9 5 19 11 9 22 10 29 4 7 -6 16 -3 25 8 13 17 13
17 -6 3 -18 -14 -19 -14 -7 2 7 9 22 15 34 13 15 -3 18 0 14 12 -5 12 -3 13 6
5 14 -11 53 9 41 21 -3 4 1 7 11 7 9 0 19 7 22 15 4 8 10 12 15 9 5 -3 9 0 9
5 0 6 5 11 11 11 5 0 7 -5 3 -12 -4 -7 -3 -8 4 -4 7 4 12 13 12 20 0 7 12 18
28 25 l27 12 -25 -21 c-14 -11 -21 -20 -17 -20 5 0 22 14 38 31 20 21 27 25
23 13 -3 -12 0 -10 9 5 9 15 16 19 19 11 3 -9 8 -7 18 6 12 14 12 16 1 9 -9
-5 -12 -4 -7 3 3 6 15 9 26 7 14 -3 20 2 20 13 0 15 2 15 10 2 8 -13 10 -13
10 2 0 10 5 15 13 12 8 -3 20 2 27 10 7 9 16 13 21 10 5 -3 6 3 2 13 -6 15 -4
16 9 5 13 -10 18 -9 29 5 13 17 13 17 -6 3 -18 -14 -19 -14 -7 2 7 9 21 15 30
13 10 -1 31 8 47 22 17 14 23 22 15 17 -9 -4 -12 -3 -7 2 5 5 19 9 31 9 26 1
78 39 68 50 -4 5 -1 5 6 1 8 -5 19 -1 28 10 14 18 14 18 7 0 -6 -18 -5 -18 15
0 24 20 29 30 10 18 -7 -4 -8 -3 -4 5 6 9 11 9 22 0 12 -10 15 -10 12 2 -2 8
4 13 15 12 12 -1 17 4 13 14 -3 8 -2 11 3 8 5 -3 13 0 16 6 4 5 14 8 22 5 11
-5 13 -2 9 10 -5 14 -4 15 9 4 13 -11 14 -10 8 6 -6 17 -5 17 10 5 15 -12 17
-12 11 4 -5 13 -4 16 4 11 7 -4 20 -2 29 3 10 6 14 11 9 11 -6 0 -1 6 10 14
13 10 23 11 32 4 9 -8 11 -7 6 5 -4 12 -1 15 16 12 16 -3 24 1 27 15 3 11 9
17 14 14 5 -2 21 3 36 13 15 10 30 17 33 16 3 -2 5 1 5 7 0 10 35 39 49 40 4
0 0 -8 -11 -18 -10 -9 -12 -13 -3 -7 8 5 23 18 33 30 10 11 16 14 12 7 -12
-22 31 4 49 30 9 12 16 17 16 10 0 -7 5 -10 10 -7 6 4 8 11 5 16 -3 5 2 6 11
2 11 -4 15 -2 11 4 -7 11 41 38 62 34 7 -1 10 2 7 8 -4 6 2 8 14 6 11 -2 23 1
26 7 5 7 2 8 -6 3 -9 -6 -11 -4 -6 4 5 7 14 10 21 7 8 -3 19 3 27 12 12 16 11
16 -7 2 -18 -14 -19 -14 -7 2 8 10 20 14 29 11 11 -4 14 -2 9 5 -5 8 -1 10 10
5 12 -4 15 -3 10 5 -5 8 -2 10 8 6 9 -4 26 6 42 23 15 15 24 23 21 17 -3 -6 0
-11 8 -11 8 0 12 4 10 8 -3 3 3 13 12 20 12 10 14 10 9 2 -4 -7 -2 -13 3 -13
6 0 11 6 11 14 0 8 5 18 12 22 7 4 8 3 4 -4 -5 -8 -2 -10 8 -6 9 3 13 11 9 17
-4 6 0 8 10 4 9 -3 21 1 29 11 12 16 11 16 -7 2 -19 -14 -19 -14 -6 3 10 12
17 14 26 7 14 -12 39 11 27 26 -4 4 0 3 9 -4 13 -10 19 -8 35 11 l19 22 -25
-20 -25 -20 19 22 c13 16 23 20 31 13 9 -7 16 -5 26 7 13 17 13 17 -6 3 -19
-14 -19 -14 -6 2 7 10 17 15 22 12 9 -5 79 32 79 42 0 3 -5 2 -12 -2 -7 -4 -8
-3 -4 5 6 9 11 9 21 1 9 -7 16 -6 25 5 7 8 17 12 23 8 6 -4 7 -1 3 6 -6 9 -13
8 -29 -6 l-22 -18 19 23 c11 12 21 20 24 17 3 -3 12 1 20 8 13 10 14 9 8 -1
-7 -11 -4 -12 13 -3 11 6 25 20 31 31 6 11 16 20 23 19 9 0 9 -2 0 -6 -7 -2
-13 -10 -13 -16 0 -7 14 4 30 23 16 19 30 29 30 23 0 -7 -5 -13 -12 -13 -6 0
-8 -3 -5 -6 9 -9 38 16 32 26 -3 5 3 7 12 6 23 -4 53 15 53 33 0 10 3 11 14 2
11 -9 16 -9 22 0 5 8 3 9 -6 4 -9 -6 -11 -4 -6 4 5 7 14 10 22 7 7 -3 22 7 34
21 12 15 20 20 21 12 0 -8 5 -4 11 9 6 12 15 22 20 22 5 0 6 -6 2 -12 -5 -9
-3 -9 9 1 9 7 14 18 10 25 -4 6 0 5 9 -2 14 -11 19 -10 34 13 13 20 19 23 31
13 11 -9 13 -8 11 3 -2 8 4 14 12 14 20 0 72 40 63 48 -3 4 4 5 15 2 13 -2 31
7 48 23 15 15 24 20 20 12 -4 -8 1 -5 11 6 23 28 69 53 58 32 -3 -7 0 -5 8 4
15 19 32 25 22 8 -10 -16 1 -11 16 7 10 11 10 14 2 9 -25 -15 -12 2 15 20 19
13 24 13 17 3 -6 -9 -4 -8 5 1 9 9 22 14 29 12 9 -3 11 0 6 8 -6 10 -4 12 8 7
9 -3 21 1 29 11 12 16 11 16 -7 2 -19 -14 -19 -14 -6 3 11 14 16 15 29 5 13
-11 14 -11 7 1 -6 11 -4 13 8 8 9 -3 19 -1 23 5 5 7 2 8 -6 3 -9 -5 -11 -4 -6
3 4 7 16 12 27 12 13 0 18 4 13 12 -5 7 -2 9 7 6 9 -3 26 3 40 14 l24 20 -30
-16 -30 -17 24 21 c17 15 27 17 37 10 9 -9 18 -4 35 19 16 22 26 28 35 20 9
-7 13 -5 16 8 2 10 12 18 23 18 23 0 78 39 68 48 -3 4 4 4 16 2 14 -3 19 0 15
7 -5 8 -1 9 10 5 14 -6 17 -3 12 9 -5 14 -4 15 8 5 11 -9 16 -9 22 0 4 8 3 9
-4 5 -7 -4 -12 -2 -12 5 0 6 8 9 20 6 13 -3 18 -1 13 6 -4 6 1 8 15 5 15 -4
19 -2 15 8 -3 10 0 12 10 8 8 -3 18 0 23 7 5 8 3 10 -6 4 -9 -5 -11 -4 -6 4 4
6 12 9 17 5 6 -3 17 2 25 12 9 11 13 12 9 4 -4 -8 3 -4 15 10 12 14 18 18 14
10 -6 -12 -5 -13 8 -3 8 7 19 9 23 5 5 -4 5 2 1 12 -5 16 -4 17 8 7 12 -10 19
-7 37 18 12 16 29 33 38 36 11 3 10 0 -3 -10 -11 -8 -18 -17 -15 -19 2 -2 15
4 28 15 13 10 19 19 15 19 -5 0 -2 5 6 10 8 5 23 7 32 4 13 -4 16 -1 12 10 -4
11 0 14 15 11 13 -2 26 4 34 16 8 10 16 16 20 13 3 -3 14 -1 24 6 17 11 17 11
-2 6 -17 -5 -16 -3 5 13 18 15 28 17 38 9 10 -9 12 -8 10 2 -2 8 4 14 12 15 8
1 14 7 12 14 -2 9 4 10 19 6 16 -5 19 -4 14 6 -6 9 -3 11 9 6 14 -6 17 -3 12
9 -5 14 -4 15 9 4 13 -11 14 -10 9 4 -4 11 -2 15 8 11 7 -3 22 2 33 11 11 8
14 12 6 8 -9 -4 -12 -3 -8 3 4 6 16 13 27 16 18 5 19 3 8 -11 -9 -11 -5 -10
13 3 15 11 25 24 22 29 -3 5 0 7 8 4 7 -2 20 3 29 12 9 9 11 10 5 1 -7 -10 -2
-10 18 3 25 17 40 35 15 20 -6 -4 -8 -3 -5 4 4 5 15 8 25 5 10 -2 29 5 43 17
l24 22 -25 -16 c-13 -9 -29 -16 -35 -16 -5 0 4 8 20 19 19 12 34 15 42 9 7 -6
14 -5 19 3 5 8 3 9 -6 4 -9 -6 -11 -4 -6 4 5 7 14 10 22 7 8 -3 13 0 11 6 -1
7 5 13 13 14 37 3 41 5 35 14 -3 6 -1 10 6 10 6 0 18 8 26 18 8 10 11 11 7 2
-7 -12 -5 -13 8 -3 8 7 18 10 22 6 4 -4 4 1 0 12 -7 17 -6 18 8 7 13 -10 18
-10 24 -1 5 8 3 9 -6 4 -9 -6 -11 -4 -6 4 5 7 14 10 22 7 7 -3 16 0 20 6 4 7
3 8 -4 4 -7 -4 -12 -5 -12 -2 0 3 10 10 21 17 15 8 19 8 15 0 -4 -6 -2 -11 3
-11 6 0 11 6 11 14 0 8 5 18 12 22 7 5 9 2 4 -7 -4 -8 1 -3 12 11 12 14 24 22
27 18 10 -10 66 52 59 64 -5 7 -2 8 5 4 8 -5 14 -1 18 12 3 12 11 18 18 16 10
-4 12 1 8 15 -3 13 -1 21 6 21 7 0 9 -5 5 -12 -4 -6 -3 -8 4 -4 6 3 9 15 7 26
-3 13 1 17 11 13 10 -4 12 0 7 13 -5 13 -3 15 8 9 11 -7 11 -5 -1 10 -14 17
-13 18 4 12 16 -6 17 -5 7 7 -10 11 -8 16 6 24 10 6 15 14 11 18 -5 4 -2 14 5
22 6 9 7 13 2 10 -6 -4 -11 2 -12 12 -1 11 2 22 8 25 5 3 6 -1 3 -9 -3 -9 -2
-16 3 -16 5 0 9 15 9 34 0 19 -4 32 -8 30 -4 -3 -8 -2 -9 3 0 4 -2 19 -5 33
-3 19 -2 21 6 10 6 -9 10 -10 10 -3 0 6 -6 18 -14 26 -11 11 -12 17 -3 26 9 9
7 10 -8 5 -17 -7 -18 -6 -7 8 11 14 10 18 -8 28 -12 6 -19 17 -17 23 2 7 -5
17 -17 24 -12 7 -15 12 -8 13 9 0 7 9 -8 30 -14 20 -26 27 -38 23 -9 -3 -14
-3 -11 1 11 12 -48 69 -62 61 -9 -6 -10 -3 -6 9 5 14 3 17 -8 12 -9 -3 -15 0
-15 8 0 8 -7 17 -16 20 -10 4 -13 2 -8 -7 3 -6 -4 -1 -17 13 -13 14 -20 20
-15 13 6 -10 4 -12 -8 -7 -9 3 -16 10 -16 16 0 5 -8 8 -17 6 -12 -2 -18 3 -17
15 2 15 -1 16 -14 5 -10 -9 -13 -9 -9 -1 8 13 -10 28 -36 28 -10 0 -27 11 -38
25 -12 14 -18 19 -14 13 3 -7 1 -13 -4 -13 -6 0 -11 6 -11 14 0 8 -5 18 -12
22 -7 5 -8 3 -3 -5 4 -8 -4 -7 -24 3 -17 9 -33 15 -35 14 -2 -2 -13 5 -23 15
-11 9 -24 14 -28 10 -5 -5 -4 0 3 9 11 14 10 16 -5 14 -9 -2 -25 7 -35 18 -9
12 -17 17 -18 12 0 -5 -8 -2 -17 5 -14 12 -16 12 -9 -1 4 -8 0 -6 -8 4 -9 11
-16 24 -16 29 0 5 -6 4 -14 -2 -10 -9 -17 -7 -27 6 -13 17 -13 17 6 3 19 -14
19 -14 6 3 -10 12 -17 14 -26 7 -9 -7 -16 -5 -26 7 -13 17 -13 17 6 3 19 -14
19 -14 6 2 -7 10 -18 15 -24 11 -5 -3 -17 4 -26 16 -9 12 -30 24 -46 27 -32 6
-39 10 -41 25 -1 5 -2 12 -3 15 0 4 -9 0 -18 -7 -15 -12 -16 -12 -10 5 7 17 6
17 -10 5 -14 -12 -16 -12 -8 0 6 11 4 13 -8 8 -9 -3 -19 -1 -23 5 -4 6 -3 8 4
4 6 -3 13 -2 16 3 4 5 -5 8 -19 6 -14 -1 -28 2 -32 8 -4 6 -1 7 8 2 11 -7 11
-5 -1 9 -8 10 -16 14 -18 8 -4 -13 -72 25 -72 40 0 6 -7 7 -16 4 -12 -5 -15
-2 -10 9 3 9 2 13 -3 10 -5 -3 -13 0 -16 6 -4 5 -14 8 -22 5 -8 -3 -12 -2 -9
3 7 12 -22 23 -37 14 -7 -4 -8 0 -4 11 4 10 3 15 -3 11 -6 -3 -10 -2 -10 3 0
13 -50 33 -62 25 -8 -4 -9 0 -4 13 4 10 4 15 0 12 -4 -4 -17 1 -30 11 -14 11
-32 17 -42 14 -10 -2 -29 5 -43 17 l-24 21 28 -17 c37 -22 34 -13 -4 15 -18
13 -29 19 -25 12 4 -6 2 -11 -3 -11 -6 0 -11 5 -11 11 0 6 -7 9 -15 6 -9 -4
-22 5 -35 23 -14 19 -27 27 -41 25 -11 -2 -17 0 -13 6 3 6 0 9 -7 8 -8 -1 -22
1 -32 6 -15 6 -16 10 -5 17 9 7 7 8 -9 5 -15 -3 -23 0 -23 8 0 8 -5 17 -12 21
-7 4 -8 3 -4 -4 4 -7 2 -12 -3 -12 -6 0 -11 5 -11 10 0 6 -7 10 -16 10 -8 0
-13 4 -9 9 3 6 -3 8 -14 6 -11 -2 -26 4 -33 13 -12 16 -11 16 7 2 18 -14 19
-14 7 2 -7 9 -22 15 -32 13 -11 -2 -23 1 -26 7 -5 7 -2 8 7 3 11 -7 11 -5 -1
9 -8 11 -16 14 -18 7 -2 -6 -8 -11 -14 -11 -6 0 -7 8 -4 17 4 10 4 14 0 10 -4
-4 -17 1 -28 10 -16 14 -18 14 -11 3 9 -14 9 -14 -5 0 -9 8 -22 16 -30 18 -8
2 -19 8 -25 14 -7 8 -6 8 4 3 9 -5 12 -4 7 3 -3 6 -15 9 -26 7 -12 -2 -18 0
-15 4 7 12 -24 23 -38 14 -6 -4 -8 0 -4 9 4 12 0 15 -19 13 -17 -1 -24 2 -20
10 3 8 -2 16 -10 19 -10 4 -13 1 -9 -7 4 -6 -3 -1 -15 13 -12 14 -19 19 -15
13 9 -19 -2 -16 -25 7 -11 11 -29 20 -40 20 -11 0 -20 5 -20 11 0 5 5 7 12 3
7 -4 8 -3 4 5 -4 6 -11 9 -16 6 -4 -3 -13 2 -20 10 -7 8 -16 12 -21 9 -5 -3
-9 1 -9 8 0 9 -3 9 -10 -2 -7 -11 -10 -11 -10 -2 0 7 -4 10 -10 7 -6 -3 -7 1
-4 10 5 11 2 14 -12 8 -13 -5 -15 -3 -9 8 7 11 6 12 -6 2 -11 -9 -20 -7 -39 9
l-25 20 29 -17 c16 -9 25 -12 22 -6 -9 14 -66 44 -66 34 0 -4 -7 2 -16 13 -8
10 -12 12 -8 4 4 -8 -7 0 -25 18 -25 25 -36 30 -46 22 -10 -9 -19 -4 -36 19
-14 19 -28 28 -41 26 -13 -3 -18 0 -15 9 4 9 -2 12 -19 10 -13 -1 -27 3 -31 8
-4 7 -1 8 8 3 12 -7 12 -6 0 9 -8 9 -23 15 -32 13 -10 -3 -23 1 -30 9 -6 8
-15 11 -20 8 -5 -3 -6 2 -3 10 4 11 0 14 -16 11 -16 -3 -20 0 -16 11 3 8 2 12
-3 9 -5 -3 -13 0 -16 6 -4 5 -14 8 -23 4 -9 -3 -13 -3 -9 1 10 11 -31 36 -45
28 -8 -5 -9 -2 -4 11 6 16 4 16 -11 4 -15 -12 -16 -12 -10 5 6 16 5 17 -8 6
-13 -11 -14 -10 -10 2 4 10 0 15 -12 15 -37 0 -42 3 -36 21 6 14 4 15 -9 4
-13 -10 -18 -9 -29 5 -13 17 -13 17 6 3 18 -14 19 -14 7 2 -7 9 -22 15 -34 13
-14 -3 -18 0 -14 11 3 9 1 12 -4 9 -6 -3 -10 0 -10 7 0 9 -3 9 -10 -2 -9 -14
-11 -13 -14 9 0 5 -5 13 -10 18 -5 5 -6 3 -2 -4 4 -7 2 -13 -3 -13 -6 0 -11 5
-11 11 0 6 -6 9 -14 6 -15 -6 -48 27 -38 39 4 5 0 3 -9 -4 -14 -11 -20 -8 -39
15 -12 15 -18 22 -15 15 11 -21 -32 4 -44 26 -6 10 -11 12 -11 4 0 -10 -3 -10
-14 0 -8 7 -11 17 -8 22 3 5 0 6 -6 2 -6 -3 -14 -1 -17 5 -4 5 -13 8 -20 5 -8
-3 -19 3 -27 12 -12 16 -11 16 7 2 19 -14 19 -14 6 3 -11 14 -16 15 -29 5 -13
-11 -15 -10 -9 5 4 11 3 16 -3 12 -6 -3 -10 -2 -10 3 0 6 -7 13 -16 16 -14 6
-15 4 -4 -11 7 -10 1 -5 -14 10 -14 15 -26 23 -26 17 0 -6 -5 -8 -10 -5 -6 4
-7 11 -4 17 5 8 1 9 -10 5 -14 -6 -17 -3 -12 9 6 15 4 15 -11 3 -11 -9 -14
-10 -9 -1 4 7 1 12 -8 12 -9 0 -16 4 -16 8 0 4 -14 16 -31 26 -22 13 -29 14
-24 5 7 -11 6 -12 -7 -2 -8 7 -19 9 -23 5 -5 -4 -5 1 -2 11 6 15 3 17 -13 12
-14 -5 -20 -2 -20 10 0 9 -5 13 -10 10 -6 -3 -22 3 -38 13 -15 11 -31 21 -37
22 -32 8 -37 13 -23 22 9 7 6 8 -10 5 -17 -4 -22 -2 -18 8 3 9 0 12 -8 9 -7
-3 -16 2 -19 10 -4 9 -13 13 -22 10 -8 -3 -15 -1 -15 6 0 6 -4 8 -10 5 -5 -3
-10 1 -10 9 0 9 -5 16 -11 16 -5 0 -7 -6 -3 -12 5 -9 3 -9 -9 1 -9 7 -14 18
-10 24 3 6 1 7 -5 3 -7 -4 -12 -1 -12 6 0 9 -3 9 -10 -2 -8 -12 -14 -10 -36
18 -14 17 -30 32 -36 32 -6 0 0 -9 13 -21 l24 -21 -31 21 c-17 11 -34 17 -38
14 -4 -4 -4 1 0 11 6 15 4 17 -6 11 -8 -5 -18 -1 -27 10 -7 11 -13 15 -13 10
0 -5 -7 0 -16 11 -8 10 -13 13 -9 7 4 -9 1 -11 -9 -7 -9 3 -16 12 -16 20 0 8
-6 11 -17 7 -10 -4 -14 -2 -10 4 4 6 0 14 -9 17 -8 3 -13 2 -10 -3 4 -5 -3 -7
-14 -4 -11 3 -20 10 -20 15 0 5 5 6 12 2 7 -4 8 -3 4 4 -4 6 -13 9 -21 5 -8
-3 -15 0 -15 7 0 7 -7 10 -15 6 -8 -3 -14 0 -12 7 1 7 -6 11 -17 9 -14 -3 -17
1 -12 13 3 9 2 14 -3 11 -5 -3 -14 1 -21 9 -7 8 -16 12 -21 9 -5 -3 -15 -2
-21 3 -7 4 -15 8 -18 8 -11 1 -44 24 -35 25 5 0 -1 7 -13 16 -13 9 -30 13 -39
10 -11 -5 -14 -2 -9 11 4 10 4 14 0 10 -4 -4 -14 -1 -22 6 -13 10 -14 9 -7 -2
5 -10 4 -12 -3 -7 -7 4 -12 14 -12 22 0 8 -5 14 -11 14 -5 0 -7 -6 -3 -12 5
-9 3 -9 -9 1 -9 7 -14 17 -11 22 3 5 -1 6 -9 3 -8 -3 -17 2 -20 10 -4 9 -13
13 -21 10 -8 -3 -17 0 -22 7 -5 8 -3 10 6 4 9 -5 11 -4 6 4 -6 9 -11 9 -21 1
-10 -9 -16 -7 -25 9 -6 11 -20 26 -31 32 -17 8 -20 8 -14 -1 6 -9 2 -9 -14 -1
-11 7 -21 14 -21 17 0 3 5 2 12 -2 7 -4 8 -3 4 5 -4 6 -11 9 -16 6 -13 -8 -40
6 -40 20 0 16 -35 29 -52 19 -8 -5 -9 -2 -4 11 6 16 4 16 -11 4 -15 -12 -16
-12 -10 4 4 10 3 16 -2 12 -6 -3 -15 3 -21 12 -11 16 -11 16 -6 -2 5 -17 4
-17 -12 4 -13 15 -24 21 -32 16 -10 -6 -12 -3 -6 11 4 10 4 15 0 11 -4 -3 -19
2 -33 12 -50 34 -58 37 -41 15 14 -18 14 -18 -6 -1 -11 9 -24 14 -28 10 -4 -4
-4 1 0 12 7 17 6 18 -8 7 -13 -10 -18 -10 -24 -1 -4 8 -3 9 4 5 19 -12 14 -2
-10 18 -20 18 -21 18 -14 0 4 -14 1 -12 -15 6 -11 14 -18 18 -14 10 4 -8 -3
-2 -15 13 -19 23 -25 26 -39 15 -9 -7 -13 -9 -9 -4 3 4 -1 16 -10 26 -12 14
-19 17 -29 8 -10 -8 -13 -6 -13 7 0 11 -5 15 -16 11 -9 -3 -25 4 -38 17 -13
13 -29 21 -36 19 -7 -3 -10 0 -7 6 9 13 -14 30 -36 26 -12 -1 -17 2 -14 10 3
7 -1 13 -9 13 -7 0 -11 -5 -8 -11 3 -6 -4 1 -16 17 -12 15 -27 27 -33 27 -6 0
-2 -7 9 -16 18 -14 18 -15 -3 -4 -13 6 -23 18 -24 28 0 10 -3 12 -6 5 -2 -7
-9 -13 -14 -13 -6 0 -7 5 -3 12 5 8 2 9 -10 5 -13 -5 -17 -3 -13 7 4 11 1 13
-10 9 -11 -4 -14 -2 -9 5 4 7 -1 10 -14 7 -15 -3 -23 3 -29 18 -5 14 -17 22
-32 22 -14 0 -24 6 -24 15 0 10 -10 15 -30 15 -20 1 -31 6 -33 18 -2 9 -8 17
-13 17 -6 0 -7 -4 -4 -10 3 -6 -1 -7 -10 -4 -9 4 -14 13 -11 21 4 8 1 11 -5 8
-6 -4 -19 1 -29 10 -10 9 -24 14 -31 9 -8 -5 -10 -3 -4 6 6 10 4 12 -8 7 -9
-3 -19 -1 -23 5 -5 7 -2 8 6 3 9 -5 11 -4 6 3 -4 7 -15 12 -24 12 -10 0 -23 9
-30 20 -7 12 -17 18 -22 15 -5 -3 -11 -1 -15 5 -3 5 -15 15 -27 21 -16 8 -19
8 -13 -1 6 -9 3 -9 -13 -1 -12 6 -24 17 -28 24 -5 7 0 6 12 -3 18 -14 18 -14
5 3 -8 9 -16 15 -19 12 -3 -3 -15 3 -26 12 -20 17 -20 17 -6 -1 15 -19 14 -19
-12 -2 -26 17 -41 35 -16 20 7 -4 8 -3 4 5 -6 9 -11 9 -21 1 -11 -9 -18 -5
-31 15 -9 14 -22 24 -28 22 -6 -2 -17 3 -24 12 -11 13 -12 13 -7 1 4 -8 -2 -6
-12 5 -10 12 -27 27 -38 35 -18 13 -19 13 -10 0 6 -9 3 -8 -7 2 -19 21 -33 24
-22 6 5 -9 3 -9 -9 1 -9 7 -14 17 -11 22 3 5 -3 6 -12 2 -11 -4 -15 -3 -10 5
4 7 -1 10 -15 7 -15 -3 -19 0 -15 11 3 8 0 14 -7 13 -25 -3 -38 1 -32 11 4 6
-1 7 -11 3 -12 -4 -15 -3 -10 6 6 8 2 11 -10 9 -11 -2 -18 2 -17 9 1 6 -5 10
-15 9 -9 -2 -29 10 -43 25 -17 18 -34 27 -47 24 -12 -2 -27 4 -34 13 -12 16
-11 16 7 2 19 -14 19 -14 6 3 -8 9 -16 15 -19 12 -3 -3 -16 5 -29 17 -13 12
-36 24 -50 26 -15 2 -32 10 -38 19 -7 9 -17 13 -23 9 -8 -4 -10 -2 -6 7 4 11
-2 14 -21 11 -20 -2 -25 1 -21 12 5 12 1 14 -16 8 -17 -5 -20 -3 -14 11 5 15
4 16 -9 5 -13 -11 -14 -10 -9 4 5 12 2 15 -10 10 -9 -4 -18 0 -22 9 -3 9 -12
13 -21 10 -11 -4 -14 -2 -9 5 5 8 1 10 -10 5 -14 -5 -16 -3 -11 12 7 16 5 16
-10 4 -10 -7 -15 -9 -11 -5 11 13 -11 36 -27 30 -7 -3 -16 0 -21 7 -5 8 -3 10
6 4 9 -5 11 -4 6 4 -6 9 -11 9 -21 1 -10 -8 -16 -7 -24 7 -6 10 -11 14 -11 9
0 -6 -7 -1 -16 10 -8 10 -12 12 -8 4 7 -13 5 -13 -9 -1 -9 7 -14 17 -11 22 3
5 -1 6 -9 3 -8 -3 -25 5 -37 18 -13 13 -19 16 -15 8 4 -8 -2 -5 -14 8 -26 26
-39 30 -20 5 11 -15 10 -15 -8 1 -13 10 -20 24 -16 30 4 6 -2 4 -12 -4 -17
-13 -18 -13 -13 0 4 11 -1 16 -15 18 -12 0 -26 7 -32 15 -5 8 -16 12 -24 9
-10 -3 -12 0 -7 13 6 16 4 16 -11 4 -10 -8 -14 -9 -10 -2 5 8 -4 18 -25 29
-18 9 -41 23 -51 32 -9 8 -20 12 -24 9 -3 -4 -1 -7 5 -7 7 0 12 -4 12 -10 0
-10 -66 26 -76 42 -4 6 6 2 22 -7 l29 -17 -24 20 c-14 11 -33 19 -42 17 -13
-3 -16 1 -12 13 6 15 5 16 -12 2 -15 -12 -17 -12 -10 -1 6 11 4 13 -9 8 -14
-6 -17 -3 -12 9 5 12 1 14 -16 8 -17 -5 -20 -3 -14 11 5 15 4 16 -9 5 -13 -11
-14 -10 -8 6 6 16 4 17 -9 6 -13 -10 -18 -9 -29 5 -13 17 -13 17 6 3 18 -14
19 -14 7 2 -7 9 -21 15 -30 13 -9 -1 -25 6 -35 17 -10 10 -23 15 -29 12 -8 -5
-9 -1 -5 10 4 9 3 15 -2 12 -5 -3 -12 1 -15 10 -5 12 -9 14 -20 5 -10 -9 -17
-7 -27 6 -13 17 -13 17 6 3 19 -14 19 -14 6 3 -10 13 -17 15 -27 6 -11 -9 -15
-7 -21 7 -9 25 -24 35 -44 29 -9 -3 -24 5 -35 17 l-19 23 25 -20 25 -20 -19
23 c-13 15 -23 19 -30 12 -6 -6 -21 2 -44 26 -25 26 -37 32 -47 24 -9 -7 -16
-6 -26 6 -8 10 -13 20 -11 23 2 3 -2 7 -10 9 -9 2 -8 0 2 -7 8 -6 10 -11 4
-11 -6 0 -17 7 -24 15 -7 8 -17 12 -23 8 -7 -4 -8 0 -3 13 4 10 4 15 0 11 -4
-4 -17 1 -28 10 -16 14 -18 14 -11 3 6 -9 3 -8 -7 2 -12 13 -18 15 -21 6 -4
-10 -6 -10 -6 0 -1 7 -5 10 -11 7 -6 -3 -7 1 -4 10 5 11 2 14 -12 8 -11 -4
-15 -3 -10 5 3 6 2 13 -3 16 -5 4 -13 1 -17 -5 -5 -8 -3 -9 6 -4 9 6 11 4 6
-4 -6 -9 -13 -8 -27 5 -24 21 -25 31 -1 13 15 -13 16 -12 3 4 -8 9 -16 15 -19
12 -3 -3 -12 1 -20 8 -13 10 -14 9 -7 -2 5 -10 4 -12 -3 -7 -7 4 -12 14 -12
22 0 8 -5 14 -11 14 -5 0 -7 -5 -3 -11 4 -8 0 -8 -15 0 -11 7 -21 14 -21 17 0
3 5 2 10 -1 6 -3 10 -4 10 -1 0 2 -25 18 -56 35 -36 20 -51 24 -42 13 11 -15
10 -15 -8 1 -11 9 -24 14 -28 10 -4 -4 -4 0 -1 9 5 13 2 15 -17 11 -19 -4 -20
-3 -8 7 13 10 11 11 -7 7 -14 -3 -21 0 -20 7 1 6 -6 10 -16 9 -11 0 -16 4 -13
12 3 9 -3 12 -19 10 -15 -1 -22 2 -18 8 4 7 0 8 -12 3 -16 -6 -16 -4 -4 11 7
10 9 15 5 11 -5 -4 -16 -2 -24 5 -13 9 -14 9 -8 0 4 -7 2 -13 -3 -13 -6 0 -11
6 -11 14 0 8 -5 18 -12 22 -7 5 -8 3 -3 -5 6 -10 3 -11 -14 -2 -11 7 -21 14
-21 17 0 3 5 2 12 -2 7 -4 8 -3 4 4 -4 6 -14 8 -23 5 -9 -4 -21 0 -27 9 -6 8
-15 17 -21 19 -5 2 -9 8 -7 12 1 5 -2 6 -8 2 -5 -3 -10 0 -10 7 0 9 -3 9 -10
-2 -9 -14 -11 -13 -14 9 0 5 -5 13 -10 18 -5 5 -6 3 -2 -4 11 -19 -3 -16 -22
5 -10 10 -12 11 -7 3 9 -12 7 -12 -13 -2 -12 7 -20 17 -16 23 4 6 1 9 -7 6 -8
-3 -20 2 -27 11 -9 10 -11 11 -6 2 5 -9 -2 -7 -18 5 -14 10 -24 23 -21 28 3 4
-5 5 -17 1 -15 -5 -20 -3 -16 3 3 6 2 13 -4 17 -5 3 -10 1 -10 -5 0 -7 -5 -6
-14 2 -8 7 -12 16 -9 21 2 4 1 6 -4 5 -4 -1 -19 4 -33 12 -14 8 -29 15 -35 16
-5 0 -16 2 -22 2 -7 1 -13 8 -13 16 0 7 -13 19 -30 25 -16 6 -45 17 -62 23
-18 7 -44 24 -57 38 -13 14 -20 18 -16 10 7 -12 6 -13 -7 -3 -8 7 -18 10 -22
6 -4 -4 -4 1 0 11 5 13 4 17 -3 13 -6 -4 -13 -1 -16 6 -2 7 -17 13 -33 15 -16
1 -34 9 -41 17 -8 9 -8 11 -1 5 7 -6 16 -10 22 -10 5 0 1 6 -10 14 -14 11 -22
12 -32 3 -11 -8 -13 -7 -10 7 2 12 -4 20 -15 21 -10 2 -14 -1 -10 -8 4 -6 -7
-1 -24 11 -17 12 -33 18 -37 15 -4 -4 -4 0 -1 8 5 13 0 16 -19 14 -14 -2 -29
2 -33 7 -4 7 -1 8 7 3 9 -5 11 -4 6 4 -4 6 -11 9 -16 6 -5 -3 -11 -1 -15 5 -3
6 -17 8 -31 6 -13 -3 -30 2 -39 10 -10 10 -15 11 -15 3 0 -8 -4 -8 -16 2 -18
15 -122 20 -130 7z m-184 -102 c0 -2 -12 -11 -27 -20 l-28 -17 24 20 c23 21
31 25 31 17z m964 -245 c-2 -3 -12 3 -22 13 -16 17 -16 18 5 5 12 -7 20 -15
17 -18z m-1097 -311 c-5 -29 -13 -33 -13 -5 0 14 4 25 8 25 4 0 7 -9 5 -20z
m0 -60 c-5 -29 -13 -33 -13 -5 0 14 4 25 8 25 4 0 7 -9 5 -20z m1778 -18 c-3
-3 -11 0 -18 7 -9 10 -8 11 6 5 10 -3 15 -9 12 -12z m-1778 -62 c-5 -29 -13
-33 -13 -5 0 14 4 25 8 25 4 0 7 -9 5 -20z m-1 -300 c-2 -81 -11 -85 -11 -4 0
35 2 64 6 64 3 0 5 -27 5 -60z m1 -100 c-5 -29 -13 -33 -13 -5 0 14 4 25 8 25
4 0 7 -9 5 -20z m0 -80 c-5 -29 -13 -33 -13 -5 0 14 4 25 8 25 4 0 7 -9 5 -20z
m2778 -38 c-3 -3 -11 0 -18 7 -9 10 -8 11 6 5 10 -3 15 -9 12 -12z m-2778
-302 c-5 -29 -13 -33 -13 -5 0 14 4 25 8 25 4 0 7 -9 5 -20z m0 -60 c-5 -29
-13 -33 -13 -5 0 14 4 25 8 25 4 0 7 -9 5 -20z m3503 -45 c11 -13 10 -14 -4
-9 -9 3 -16 10 -16 15 0 13 6 11 20 -6z m-3503 -35 c-5 -29 -13 -33 -13 -5 0
14 4 25 8 25 4 0 7 -9 5 -20z m3633 -46 c0 -2 -9 0 -20 6 -11 6 -20 13 -20 16
0 2 9 0 20 -6 11 -6 20 -13 20 -16z m-3634 -254 c-2 -81 -11 -85 -11 -4 0 35
2 64 6 64 3 0 5 -27 5 -60z m4219 -80 c3 -5 1 -10 -4 -10 -6 0 -11 5 -11 10 0
6 2 10 4 10 3 0 8 -4 11 -10z m-4218 -20 c-5 -29 -13 -33 -13 -5 0 14 4 25 8
25 4 0 7 -9 5 -20z m0 -80 c-5 -29 -13 -33 -13 -5 0 14 4 25 8 25 4 0 7 -9 5
-20z m5138 -438 c-3 -3 -11 0 -18 7 -9 10 -8 11 6 5 10 -3 15 -9 12 -12z m170
-92 c3 -6 -1 -7 -9 -4 -18 7 -21 14 -7 14 6 0 13 -4 16 -10z m360 -210 c3 -6
-1 -7 -9 -4 -18 7 -21 14 -7 14 6 0 13 -4 16 -10z m-5669 -520 c-2 -81 -11
-85 -11 -4 0 35 2 64 6 64 3 0 5 -27 5 -60z m6544 15 c11 -13 10 -14 -4 -9 -9
3 -16 10 -16 15 0 13 6 11 20 -6z m-6543 -115 c-5 -29 -13 -33 -13 -5 0 14 4
25 8 25 4 0 7 -9 5 -20z m0 -80 c-5 -29 -13 -33 -13 -5 0 14 4 25 8 25 4 0 7
-9 5 -20z m-1 -300 c-2 -81 -11 -85 -11 -4 0 35 2 64 6 64 3 0 5 -27 5 -60z
m1 -100 c-5 -29 -13 -33 -13 -5 0 14 4 25 8 25 4 0 7 -9 5 -20z m0 -80 c-5
-29 -13 -33 -13 -5 0 14 4 25 8 25 4 0 7 -9 5 -20z m7838 -70 c3 -5 1 -10 -4
-10 -6 0 -11 5 -11 10 0 6 2 10 4 10 3 0 8 -4 11 -10z m-7838 -270 c-5 -29
-13 -33 -13 -5 0 14 4 25 8 25 4 0 7 -9 5 -20z m0 -60 c-5 -29 -13 -33 -13 -5
0 14 4 25 8 25 4 0 7 -9 5 -20z m0 -80 c-5 -29 -13 -33 -13 -5 0 14 4 25 8 25
4 0 7 -9 5 -20z m8773 -136 c0 -2 -9 0 -20 6 -11 6 -20 13 -20 16 0 2 9 0 20
-6 11 -6 20 -13 20 -16z m-8774 -164 c-2 -81 -11 -85 -11 -4 0 35 2 64 6 64 3
0 5 -27 5 -60z m9184 -72 c0 -6 -6 -5 -15 2 -8 7 -15 14 -15 16 0 2 7 1 15 -2
8 -4 15 -11 15 -16z m-9183 -28 c-5 -29 -13 -33 -13 -5 0 14 4 25 8 25 4 0 7
-9 5 -20z m0 -80 c-5 -29 -13 -33 -13 -5 0 14 4 25 8 25 4 0 7 -9 5 -20z m0
-340 c-5 -29 -13 -33 -13 -5 0 14 4 25 8 25 4 0 7 -9 5 -20z m9913 -10 c6 -11
8 -20 6 -20 -3 0 -10 9 -16 20 -6 11 -8 20 -6 20 3 0 10 -9 16 -20z m-9913
-50 c-5 -29 -13 -33 -13 -5 0 14 4 25 8 25 4 0 7 -9 5 -20z m0 -80 c-5 -29
-13 -33 -13 -5 0 14 4 25 8 25 4 0 7 -9 5 -20z m-1 -300 c-2 -81 -11 -85 -11
-4 0 35 2 64 6 64 3 0 5 -27 5 -60z m1 -100 c-5 -29 -13 -33 -13 -5 0 14 4 25
8 25 4 0 7 -9 5 -20z m9863 -8 c0 -4 -10 -13 -22 -21 -23 -14 -23 -14 -4 8 20
22 26 25 26 13z m-9863 -72 c-5 -29 -13 -33 -13 -5 0 14 4 25 8 25 4 0 7 -9 5
-20z m9043 -424 c0 -3 -4 -8 -10 -11 -5 -3 -10 -1 -10 4 0 6 5 11 10 11 6 0
10 -2 10 -4z m-490 -280 c0 -2 -8 -10 -17 -17 -16 -13 -17 -12 -4 4 13 16 21
21 21 13z m-120 -70 c0 -2 -8 -10 -17 -17 -16 -13 -17 -12 -4 4 13 16 21 21
21 13z m-440 -250 c0 -2 -8 -10 -17 -17 -16 -13 -17 -12 -4 4 13 16 21 21 21
13z m-80 -50 c0 -2 -8 -10 -17 -17 -16 -13 -17 -12 -4 4 13 16 21 21 21 13z
m-210 -120 c0 -2 -8 -10 -17 -17 -16 -13 -17 -12 -4 4 13 16 21 21 21 13z
m-7704 -66 c-2 -81 -11 -85 -11 -4 0 35 2 64 6 64 3 0 5 -27 5 -60z m7614 16
c0 -2 -8 -10 -17 -17 -16 -13 -17 -12 -4 4 13 16 21 21 21 13z m-7613 -116
c-5 -29 -13 -33 -13 -5 0 14 4 25 8 25 4 0 7 -9 5 -20z m0 -80 c-5 -29 -13
-33 -13 -5 0 14 4 25 8 25 4 0 7 -9 5 -20z m-1 -300 c-2 -81 -11 -85 -11 -4 0
35 2 64 6 64 3 0 5 -27 5 -60z m6694 -34 c0 -2 -8 -10 -17 -17 -16 -13 -17
-12 -4 4 13 16 21 21 21 13z m-6693 -66 c-5 -29 -13 -33 -13 -5 0 14 4 25 8
25 4 0 7 -9 5 -20z m6557 -18 c3 -5 -1 -9 -9 -9 -8 0 -12 4 -9 9 3 4 7 8 9 8
2 0 6 -4 9 -8z m-6557 -62 c-5 -29 -13 -33 -13 -5 0 14 4 25 8 25 4 0 7 -9 5
-20z m6103 -205 c-7 -9 -15 -13 -19 -10 -3 3 1 10 9 15 21 14 24 12 10 -5z
m-80 -39 c0 -2 -8 -10 -17 -17 -16 -13 -17 -12 -4 4 13 16 21 21 21 13z
m-6023 -96 c-5 -29 -13 -33 -13 -5 0 14 4 25 8 25 4 0 7 -9 5 -20z m0 -60 c-5
-29 -13 -33 -13 -5 0 14 4 25 8 25 4 0 7 -9 5 -20z m0 -80 c-5 -29 -13 -33
-13 -5 0 14 4 25 8 25 4 0 7 -9 5 -20z m5583 -24 c0 -3 -4 -8 -10 -11 -5 -3
-10 -1 -10 4 0 6 5 11 10 11 6 0 10 -2 10 -4z m-280 -160 c0 -3 -4 -8 -10 -11
-5 -3 -10 -1 -10 4 0 6 5 11 10 11 6 0 10 -2 10 -4z m-5304 -116 c-2 -81 -11
-85 -11 -4 0 35 2 64 6 64 3 0 5 -27 5 -60z m1 -100 c-5 -29 -13 -33 -13 -5 0
14 4 25 8 25 4 0 7 -9 5 -20z m0 -80 c-5 -29 -13 -33 -13 -5 0 14 4 25 8 25 4
0 7 -9 5 -20z m4758 -20 c-3 -5 -12 -10 -18 -10 -7 0 -6 4 3 10 19 12 23 12
15 0z m-256 -143 c-2 -1 -13 -9 -24 -17 -19 -14 -19 -14 -6 3 7 9 18 17 24 17
6 0 8 -1 6 -3z m-239 -141 c0 -3 -4 -8 -10 -11 -5 -3 -10 -1 -10 4 0 6 5 11
10 11 6 0 10 -2 10 -4z m-4263 -36 c-5 -29 -13 -33 -13 -5 0 14 4 25 8 25 4 0
7 -9 5 -20z m0 -60 c-5 -29 -13 -33 -13 -5 0 14 4 25 8 25 4 0 7 -9 5 -20z m0
-80 c-5 -29 -13 -33 -13 -5 0 14 4 25 8 25 4 0 7 -9 5 -20z m3913 -25 c0 -2
-10 -9 -22 -15 -22 -11 -22 -10 -4 4 21 17 26 19 26 11z m-3914 -275 c-2 -81
-11 -85 -11 -4 0 35 2 64 6 64 3 0 5 -27 5 -60z m3444 6 c0 -2 -8 -10 -17 -17
-16 -13 -17 -12 -4 4 13 16 21 21 21 13z m-3443 -106 c-5 -29 -13 -33 -13 -5
0 14 4 25 8 25 4 0 7 -9 5 -20z m0 -80 c-5 -29 -13 -33 -13 -5 0 14 4 25 8 25
4 0 7 -9 5 -20z m2733 -224 c0 -2 -8 -10 -17 -17 -16 -13 -17 -12 -4 4 13 16
21 21 21 13z m-530 -310 c0 -3 -4 -8 -10 -11 -5 -3 -10 -1 -10 4 0 6 5 11 10
11 6 0 10 -2 10 -4z m-2152 -761 c-3 -3 -9 2 -12 12 -6 14 -5 15 5 6 7 -7 10
-15 7 -18z m22 -35 c0 -5 -2 -10 -4 -10 -3 0 -8 5 -11 10 -3 6 -1 10 4 10 6 0
11 -4 11 -10z m190 -160 c0 -5 -2 -10 -4 -10 -3 0 -8 5 -11 10 -3 6 -1 10 4
10 6 0 11 -4 11 -10z"/>
<path d="M1950 11516 c0 -2 7 -7 16 -10 8 -3 12 -2 9 4 -6 10 -25 14 -25 6z"/>
<path d="M1990 11496 c0 -2 7 -7 16 -10 8 -3 12 -2 9 4 -6 10 -25 14 -25 6z"/>
<path d="M6775 8730 c3 -5 8 -10 11 -10 2 0 4 5 4 10 0 6 -5 10 -11 10 -5 0
-7 -4 -4 -10z"/>
<path d="M7451 8347 c2 -1 13 -9 24 -17 19 -14 19 -14 6 3 -7 9 -18 17 -24 17
-6 0 -8 -1 -6 -3z"/>
<path d="M8455 7760 c3 -5 8 -10 11 -10 2 0 4 5 4 10 0 6 -5 10 -11 10 -5 0
-7 -4 -4 -10z"/>
<path d="M8610 7676 c0 -2 8 -10 18 -17 15 -13 16 -12 3 4 -13 16 -21 21 -21
13z"/>
<path d="M10010 6866 c0 -2 7 -7 16 -10 8 -3 12 -2 9 4 -6 10 -25 14 -25 6z"/>
<path d="M10515 6570 c3 -5 8 -10 11 -10 2 0 4 5 4 10 0 6 -5 10 -11 10 -5 0
-7 -4 -4 -10z"/>
<path d="M10655 6490 c3 -5 8 -10 11 -10 2 0 4 5 4 10 0 6 -5 10 -11 10 -5 0
-7 -4 -4 -10z"/>
<path d="M9120 4650 c-9 -6 -10 -10 -3 -10 6 0 15 5 18 10 8 12 4 12 -15 0z"/>
<path d="M7855 3920 c-3 -5 -1 -10 4 -10 6 0 11 5 11 10 0 6 -2 10 -4 10 -3 0
-8 -4 -11 -10z"/>
<path d="M7475 3700 c-3 -5 -1 -10 4 -10 6 0 11 5 11 10 0 6 -2 10 -4 10 -3 0
-8 -4 -11 -10z"/>
<path d="M6429 3093 c-13 -16 -12 -17 4 -4 16 13 21 21 13 21 -2 0 -10 -8 -17
-17z"/>
<path d="M6145 2930 c-3 -6 1 -7 9 -4 18 7 21 14 7 14 -6 0 -13 -4 -16 -10z"/>
<path d="M5180 2370 c-9 -6 -10 -10 -3 -10 6 0 15 5 18 10 8 12 4 12 -15 0z"/>
<path d="M3055 1150 c-3 -5 -1 -10 4 -10 6 0 11 5 11 10 0 6 -2 10 -4 10 -3 0
-8 -4 -11 -10z"/>
<path d="M2146 625 c-11 -8 -15 -15 -9 -15 6 0 16 7 23 15 16 19 11 19 -14 0z"/>
</g>
</svg>
